<?xml version="1.0" encoding="UTF-8"?>
<svg width="512px" height="512px" viewBox="0 0 512 512" version="1.1" xmlns="http://www.w3.org/2000/svg" xmlns:xlink="http://www.w3.org/1999/xlink">
    <!-- Generator: Sketch 59.1 (86144) - https://sketch.com -->
    <title>Blå</title>
    <desc>Created with Sketch.</desc>
    <g id="Page-1" stroke="none" stroke-width="1" fill="none" fill-rule="evenodd">
        <g id="Logotyper" transform="translate(-1307.000000, -2087.000000)" fill="#000000">
            <g id="Alla">
                <g id="Blå-boll" transform="translate(1042.000000, 1822.000000)">
                    <g id="Blå" transform="translate(265.000000, 265.000000)">
                        <path d="M256.001973,0 C397.391838,0 512,114.624156 512,256 C512,397.379791 397.391838,512 256.001973,512 C114.616056,512 -2.84217094e-14,397.379791 -2.84217094e-14,256 C-2.84217094e-14,114.624156 114.616056,0 256.001973,0 Z M281.877862,68.7342358 C199.758622,92.581049 153.354897,181.34945 178.226299,266.989979 C203.097701,352.638402 289.836789,402.739601 371.958002,378.886868 C454.081189,355.040054 500.488861,266.26968 475.617459,180.625204 C450.740137,94.9708612 364.006969,44.8815023 281.877862,68.7342358 Z M317.021255,114.314553 L324.472933,143.559924 C293.062842,154.108323 273.036978,184.183741 275.371164,215.940297 L313.259988,206.263483 L319.672446,231.447763 L282.106862,241.039347 C295.548817,268.774268 326.449976,284.807484 358.129759,279.602241 L359.089973,279.437995 L366.364511,307.985829 C313.295416,318.634123 260.893547,287.022245 247.674987,235.158115 C234.462331,183.290043 265.343691,130.407192 317.021255,114.314553 Z M446.370655,184.419109 C457.944965,229.857751 435.668277,276.080473 395.229277,297.683562 L393.99831,298.330639 L386.436411,268.637976 C411.326512,252.399524 424.489962,222.121639 416.892636,192.318631 C409.369334,162.811702 383.784322,142.653881 354.523829,140.003343 L353.636038,139.928391 L345.895031,109.53819 C392.27415,108.48006 434.673528,138.519521 446.370655,184.419109 Z" id="Bollen"></path>
                    </g>
                </g>
            </g>
        </g>
    </g>
</svg>